<svg xmlns="http://www.w3.org/2000/svg" version="1.1" xmlns:xlink="http://www.w3.org/1999/xlink" xmlns:svgjs="http://svgjs.dev/svgjs" width="1500" height="1500" viewBox="0 0 1500 1500"><rect width="1500" height="1500" fill="#000000"></rect><g transform="matrix(0.6666666666666666,0,0,0.6666666666666666,249.39393939393938,656.5911014167359)"><svg viewBox="0 0 396 74" data-background-color="#ffffff" preserveAspectRatio="xMidYMid meet" height="280" width="1500" xmlns="http://www.w3.org/2000/svg" xmlns:xlink="http://www.w3.org/1999/xlink"><g id="tight-bounds" transform="matrix(1,0,0,1,0.2400000000000091,0.029956224079683125)"><svg viewBox="0 0 395.52 73.94008755184065" height="73.94008755184065" width="395.52"><g><svg viewBox="0 0 501.97019838025597 93.84031254209887" height="73.94008755184065" width="395.52"><g transform="matrix(1,0,0,1,106.45019838025596,0)"><svg viewBox="0 0 395.52 93.84031254209887" height="93.84031254209887" width="395.52"><g id="textblocktransform"><svg viewBox="0 0 395.52 93.84031254209887" height="93.84031254209887" width="395.52" id="textblock"><g><svg viewBox="0 0 395.52 93.84031254209887" height="93.84031254209887" width="395.52"><g transform="matrix(1,0,0,1,0,0)"><svg width="395.52" viewBox="1 -39.2 171.28000000000003 40.6453125" height="93.84031254209887" data-palette-color="#000000"><path d="M17.35-35.8L17.35-35.8Q17.25-35.95 17.07-36.27 16.9-36.6 17-36.7L17-36.7Q17.1-36.8 17.32-36.65 17.55-36.5 17.6-36.45L17.6-36.45Q18.5-35.8 19.28-34.65 20.05-33.5 20.68-32.13 21.3-30.75 21.8-29.25 22.3-27.75 22.6-26.4L22.6-26.4Q23.35-23.1 23.88-19.9 24.4-16.7 24.4-13.3L24.4-13.3Q24.4-13.2 24.43-12.7 24.45-12.2 24.25-12.1L24.25-12.1Q24.1-12.2 23.93-12.6 23.75-13 23.7-13.15L23.7-13.15Q23.1-15 22.63-17.38 22.15-19.75 21.75-21.7L21.75-21.7Q21.45-23.2 21.2-24.58 20.95-25.95 20.63-27.25 20.3-28.55 19.88-29.88 19.45-31.2 18.85-32.65L18.85-32.65Q18.75-32.85 18.53-33.35 18.3-33.85 18.05-34.35 17.8-34.85 17.6-35.27 17.4-35.7 17.35-35.8ZM29.35 1.25L29.35 1.25Q28.8 0.95 28.6 0.88 28.4 0.8 27.85 0.45L27.85 0.45Q26.65-0.25 25.65-1.38 24.65-2.5 23.85-3.85 23.05-5.2 22.43-6.73 21.8-8.25 21.35-9.75L21.35-9.75Q20.35-9.1 18.98-8.97 17.6-8.85 16.45-8.85L16.45-8.85Q15-8.85 13.58-8.95 12.15-9.05 10.7-9.05L10.7-9.05Q9.3-6.45 8.08-4.03 6.85-1.6 6.15 0.5L6.15 0.5Q6.15 0.55 6.1 0.73 6.05 0.9 5.95 0.9L5.95 0.9Q5.8 0.9 5.8 0.55 5.8 0.2 5.8 0.1L5.8 0.1Q5.8-1.9 6.78-4.38 7.75-6.85 8.95-9.25L8.95-9.25 8.2-9.3Q7.9-8.6 7.38-7.35 6.85-6.1 6.38-4.75 5.9-3.4 5.53-2.15 5.15-0.9 5.15-0.15L5.15-0.15Q5.15 0 5 0L5 0Q4.8 0 4.7-0.33 4.6-0.65 4.53-1.05 4.45-1.45 4.42-1.88 4.4-2.3 4.4-2.45L4.4-2.45Q4.4-4.2 4.85-6.13 5.3-8.05 6.05-9.65L6.05-9.65 5.4-9.75Q4.95-8.65 4.55-7.58 4.15-6.5 3.85-5.35L3.85-5.35Q3.85-5.25 3.8-5.1 3.75-4.95 3.65-5L3.65-5Q3.55-5.2 3.53-5.48 3.5-5.75 3.5-5.95L3.5-5.95Q3.5-8.05 4.25-10L4.25-10Q4.5-10.5 4.75-10.5L4.75-10.5Q5.8-10.8 6.88-10.85 7.95-10.9 9.1-10.9L9.1-10.9Q11.6-10.9 14.05-10.53 16.5-10.15 18.95-10.15L18.95-10.15Q20.15-10.15 21.15-10.35L21.15-10.35 21.05-11.15Q20.5-11 19.88-10.95 19.25-10.9 18.7-10.9L18.7-10.9Q16.75-10.9 14.68-11.3 12.6-11.7 10.7-12.25L10.7-12.25Q10.6-12.35 10.3-12.43 10-12.5 10-12.65L10-12.65Q10-12.75 10.3-12.83 10.6-12.9 10.7-12.9L10.7-12.9Q11.4-12.95 12.08-12.98 12.75-13 13.45-13L13.45-13Q14.6-13 15.75-12.98 16.9-12.95 18.1-12.95L18.1-12.95Q18.7-12.95 19.35-12.95 20-12.95 20.6-13L20.6-13 20.5-13.55 19.85-13.55Q17.45-13.55 15.08-14 12.7-14.45 10.3-14.45L10.3-14.45Q8.25-14.45 6.68-13.95 5.1-13.45 3.98-12.8 2.85-12.15 2.15-11.5 1.45-10.85 1.15-10.55L1.15-10.55Q1.05-10.5 1.05-10.5L1.05-10.5Q1-10.5 1-10.6L1-10.6Q1-10.65 1.05-10.7L1.05-10.7Q1.95-12.45 3.25-13.63 4.55-14.8 6.45-15.4L6.45-15.4Q8.35-19.45 10.38-23.45 12.4-27.45 14.65-31.35L14.65-31.35Q14.7-31.45 14.85-31.68 15-31.9 15.15-31.9L15.15-31.9Q15.2-31.85 15.2-31.8L15.2-31.8 15.2-31.7Q15.2-31.3 15.15-31.1L15.15-31.1Q14.2-27.05 12.35-23.3 10.5-19.55 8.55-15.9L8.55-15.9 9.5-15.95Q9.65-16.25 10.28-17.25 10.9-18.25 11.63-19.33 12.35-20.4 12.95-21.28 13.55-22.15 13.7-22.15L13.7-22.15 13.75-22Q13.75-21.75 13.45-20.9 13.15-20.05 12.75-19.05 12.35-18.05 11.98-17.18 11.6-16.3 11.45-15.95L11.45-15.95Q11.75-15.95 12.05-15.93 12.35-15.9 12.65-15.9L12.65-15.9Q13.55-17.7 14.58-19.68 15.6-21.65 16.35-23.7 17.1-25.75 17.38-27.85 17.65-29.95 17.05-32L17.05-32Q17.05-31.75 16.93-31 16.8-30.25 16.6-29.43 16.4-28.6 16.2-27.98 16-27.35 15.8-27.35L15.8-27.35Q15.65-27.35 15.68-27.55 15.7-27.75 15.7-27.8L15.7-27.8Q15.7-29.1 15.88-30.38 16.05-31.65 16.05-32.95L16.05-32.95Q16.05-34.7 15.5-36.35L15.5-36.35Q15.5-36.4 15.35-36.77 15.2-37.15 15.45-37.15L15.45-37.15Q15.55-37.15 15.8-36.9L15.8-36.9Q16.3-36.4 16.78-35.55 17.25-34.7 17.65-33.73 18.05-32.75 18.4-31.8 18.75-30.85 18.95-30.2L18.95-30.2Q19.6-28.05 20.03-25.88 20.45-23.7 20.78-21.53 21.1-19.35 21.45-17.15 21.8-14.95 22.25-12.8L22.25-12.8Q22.7-10.7 23.33-8.7 23.95-6.7 24.85-4.9 25.75-3.1 26.93-1.58 28.1-0.05 29.65 1.1L29.65 1.1Q29.9 1.35 29.83 1.43 29.75 1.5 29.35 1.25ZM29.1-3.6L29.25-3Q29.3-2.7 29.2-2.73 29.1-2.75 28.98-2.9 28.85-3.05 28.73-3.25 28.6-3.45 28.6-3.5L28.6-3.5Q27.4-5.7 26.7-7.98 26-10.25 25.6-12.58 25.2-14.9 24.93-17.28 24.65-19.65 24.28-22.13 23.9-24.6 23.3-27.15 22.7-29.7 21.6-32.35L21.6-32.35Q21.55-32.45 21.45-32.7 21.35-32.95 21.45-33L21.45-33Q21.55-33 21.7-32.85L21.7-32.85 21.9-32.65Q23-31.35 23.85-29.2 24.7-27.05 25.35-24.6 26-22.15 26.43-19.75 26.85-17.35 27.1-15.55L27.1-15.55Q27.5-12.7 27.95-9.55 28.4-6.4 29.1-3.6L29.1-3.6ZM14.4-15.7L14.4-15.7Q15.85-15.55 17.28-15.35 18.7-15.15 20.15-15.05L20.15-15.05Q19.6-17.7 19.2-20.3 18.8-22.9 18.45-25.6L18.45-25.6Q17.8-23 16.68-20.55 15.55-18.1 14.4-15.7ZM30.85 0.7L30.85 0.7Q29.85 0.25 29.1-0.18 28.35-0.6 27.8-1.35L27.8-1.35Q26.95-2.5 26.48-3.65 26-4.8 25.7-5.8L25.7-5.8Q25.6-6.2 25.53-6.7 25.45-7.2 25.55-7.2L25.55-7.2Q25.75-7.2 26.05-6.55 26.35-5.9 26.6-5.45L26.6-5.45Q27.35-3.9 28.5-2.33 29.65-0.75 31 0.25L31 0.25Q31.4 0.6 31.25 0.7 31.1 0.8 30.85 0.7ZM1.3-8.9L1.3-8.9Q1.3-8.9 1.2-8.9L1.2-8.9 1.15-8.9Q1.15-9.05 1.2-9.2 1.25-9.35 1.3-9.5L1.3-9.5Q1.7-10.35 2.08-10.78 2.45-11.2 3.3-11.7L3.3-11.7Q3.8-12 4.7-12.3 5.6-12.6 6.15-12.6L6.15-12.6Q6.25-12.6 6.43-12.58 6.6-12.55 6.6-12.4L6.6-12.4Q6.6-12.25 6.08-12 5.55-11.75 5.4-11.65L5.4-11.65Q3.5-10.5 2.6-9.9 1.7-9.3 1.3-8.9ZM43.2-9.4L43.2-9.4Q42.55-8.2 41.75-6.83 40.95-5.45 40.2-4.85L40.2-4.85Q39.45-4.25 39.15-4.45 38.85-4.65 38.45-5.35L38.45-5.35Q38.05-5.95 38.05-5.95L38.05-5.95Q37.9-5.9 37.9-5.6 37.9-5.3 38-5.05L38-5.05Q38.3-4.05 38.72-3.68 39.15-3.3 39.95-3.55L39.95-3.55Q40.85-3.8 41.72-4.65 42.6-5.5 43.25-6.35L43.25-6.35Q44.75-8.4 45.62-10.7 46.5-13 46.6-15.4L46.6-15.4Q46.7-17.6 46.05-18.25 45.4-18.9 44.42-18.68 43.45-18.45 42.32-17.63 41.2-16.8 40.3-16.05L40.3-16.05Q40.6-16.8 41.12-17.5 41.65-18.2 42.32-18.73 43-19.25 43.82-19.53 44.65-19.8 45.5-19.7L45.5-19.7Q46-19.65 46.4-19.2 46.8-18.75 47.05-18.07 47.3-17.4 47.37-16.5 47.45-15.6 47.35-14.65L47.35-14.65Q47.1-12.75 46.62-10.85 46.15-8.95 45.4-7.35L45.4-7.35Q45.3-7.1 45.07-6.65 44.85-6.2 44.95-6.1L44.95-6.1Q45.05-6 45.42-6.43 45.8-6.85 46-7.05L46-7.05Q46.9-8.25 47.6-9.78 48.3-11.3 48.67-12.9 49.05-14.5 49.1-16.13 49.15-17.75 48.8-19.2L48.8-19.2Q48.5-20.45 47.57-20.9 46.65-21.35 45.55-21.2 44.45-21.05 43.35-20.5 42.25-19.95 41.55-19.3L41.55-19.3Q41.85-20.05 42.37-20.63 42.9-21.2 43.57-21.63 44.25-22.05 45.02-22.23 45.8-22.4 46.6-22.3L46.6-22.3Q48-22.15 48.72-21.2 49.45-20.25 49.72-19.03 50-17.8 49.97-16.48 49.95-15.15 49.85-14.25L49.85-14.25Q49.6-12.15 48.9-10.1 48.2-8.05 47.15-6.3L47.15-6.3Q46.3-4.9 44.92-3.55 43.55-2.2 41.95-1.4 40.35-0.6 38.65-0.58 36.95-0.55 35.45-1.8L35.45-1.8Q34.45-2.65 34.02-4.08 33.6-5.5 33.45-6.8L33.45-6.8Q33.2-9.05 33.52-11.33 33.85-13.6 34.5-15.55L34.5-15.55Q35.5-18.6 36.77-21.7 38.05-24.8 38.97-27.8 39.9-30.8 40.15-33.6 40.4-36.4 39.35-38.9L39.35-38.9Q39.3-39 39.27-39.1 39.25-39.2 39.2-39.2L39.2-39.2Q39.05-39.15 39.07-39.1 39.1-39.05 39.1-39L39.1-39Q39.4-36.6 38.9-34 38.4-31.4 37.47-28.6 36.55-25.8 35.4-22.83 34.25-19.85 33.2-16.7L33.2-16.7Q32.5-14.45 32.07-11.9 31.65-9.35 32.05-6.7L32.05-6.7Q32.6-3.1 35-1.35 37.4 0.4 41 0L41 0Q43.6-0.3 45.6-2.1 47.6-3.9 48.95-6.45L48.95-6.45Q49.95-8.4 50.67-10.58 51.4-12.75 51.55-15L51.55-15Q51.65-16.4 51.52-17.9 51.4-19.4 50.87-20.68 50.35-21.95 49.32-22.78 48.3-23.6 46.6-23.7L46.6-23.7Q45.6-23.75 44.37-23.2 43.15-22.65 42.45-21.9L42.45-21.9Q42.9-23.4 43.27-24.98 43.65-26.55 43.85-28 44.05-29.45 44.02-30.73 44-32 43.65-32.9L43.65-32.9Q43.55-33.3 43.45-33.3L43.45-33.3Q43.4-33.3 43.4-32.9L43.4-32.9Q43.3-29.7 42.35-26.83 41.4-23.95 40.45-21.35L40.45-21.35Q39.7-19.25 38.87-17.18 38.05-15.1 37.47-13.05 36.9-11 36.65-9.03 36.4-7.05 36.75-5.2L36.75-5.2Q36.8-5 36.92-4.73 37.05-4.45 37.15-4.45L37.15-4.45Q37.25-4.45 37.22-4.7 37.2-4.95 37.25-5.2L37.25-5.2Q37.5-6.95 38.2-9.43 38.9-11.9 39.85-14.4L39.85-14.4Q40.4-14.9 41.17-15.58 41.95-16.25 42.72-16.8 43.5-17.35 44.15-17.63 44.8-17.9 45.1-17.65L45.1-17.65Q45.5-17.25 45.4-16.18 45.3-15.1 44.92-13.8 44.55-12.5 44.05-11.28 43.55-10.05 43.2-9.4ZM41.75-27.35L41.75-27.35Q42.05-28.4 42.22-29.88 42.4-31.35 42.35-32.83 42.3-34.3 41.97-35.63 41.65-36.95 41-37.75L41-37.75Q40.9-37.85 40.8-37.98 40.7-38.1 40.6-38.1L40.6-38.1Q40.45-38.1 40.65-37.6L40.65-37.6Q41.1-36.6 40.95-34.63 40.8-32.65 40.35-30.4 39.9-28.15 39.3-26 38.7-23.85 38.2-22.6L38.2-22.6Q37.9-21.9 37.57-20.9 37.25-19.9 36.95-18.88 36.65-17.85 36.37-16.88 36.1-15.9 35.95-15.2L35.95-15.2Q35.95-14.95 35.87-14.5 35.8-14.05 35.85-14.05L35.85-14.05Q36.1-13.95 36.27-14.4 36.45-14.85 36.6-14.95L36.6-14.95Q38-17.8 39.37-20.98 40.75-24.15 41.75-27.35ZM36.4-3.55L36.4-3.55Q36.85-2.8 37.55-2.33 38.25-1.85 38.95-1.7L38.95-1.7Q39.2-1.65 39.5-1.58 39.8-1.5 39.8-1.3L39.8-1.3Q39.75-1.15 39.35-1.05L39.35-1.05Q39.15-1 38.9-1L38.9-1Q38.05-1.05 37.22-1.3 36.4-1.55 35.5-2.75L35.5-2.75Q34.9-3.55 34.62-4.55 34.35-5.55 34.3-6.45 34.25-7.35 34.37-7.95 34.5-8.55 34.75-8.5L34.75-8.5Q34.8-8.5 34.9-8.22 35-7.95 35.07-7.58 35.15-7.2 35.22-6.88 35.3-6.55 35.35-6.4L35.35-6.4Q35.55-5.55 35.7-5 35.85-4.45 36.4-3.55ZM74.15-26.05L74.15-26.05Q73.45-22.9 72.32-19.78 71.2-16.65 70.09-13.85L70.09-13.85Q70.05-13.6 69.84-13.2 69.65-12.8 69.4-12.9L69.4-12.9Q69.34-12.9 69.34-13.35 69.34-13.8 69.4-13.95L69.4-13.95Q69.5-14.65 69.67-15.63 69.84-16.6 70.07-17.6 70.3-18.6 70.55-19.58 70.8-20.55 71-21.25L71-21.25Q71.15-21.55 71.37-22.6 71.59-23.65 71.84-25.08 72.09-26.5 72.3-28.15 72.5-29.8 72.55-31.33 72.59-32.85 72.52-34.1 72.45-35.35 72.09-35.95L72.09-35.95Q71.84-36.45 72-36.5L72-36.5Q72.2-36.5 72.45-36.25L72.45-36.25Q73.2-35.5 73.62-34.23 74.05-32.95 74.25-31.48 74.45-30 74.4-28.55 74.34-27.1 74.15-26.05ZM75.45-31.6L75.45-31.6Q75.95-30.6 76.05-29.15 76.15-27.7 76-26.03 75.84-24.35 75.52-22.58 75.2-20.8 74.8-19.18 74.4-17.55 74.02-16.15 73.65-14.75 73.4-13.85L73.4-13.85Q72.7-11.25 72.12-8.68 71.55-6.1 71.55-4.3L71.55-4.3Q71.55-3.65 71.5-3.65L71.5-3.65Q71.4-3.55 71.27-3.8 71.15-4.05 71.05-4.3L71.05-4.3Q70.55-6.1 70.62-8.03 70.7-9.95 71.09-11.98 71.5-14 72.12-16.07 72.75-18.15 73.34-20.2L73.34-20.2Q74.05-22.8 74.75-25.63 75.45-28.45 75.2-31.6L75.2-31.6Q75.2-31.85 75.17-31.88 75.15-31.9 75.2-31.9L75.2-31.9Q75.3-31.9 75.45-31.6ZM68.25-21.35L68.25-21.35Q65.25-20.05 63.12-17.73 61-15.4 59.9-12.55L59.9-12.55Q59.45-11.35 59.17-10.28 58.9-9.2 58.8-8L58.8-8Q58.75-7.4 59.1-7.55 59.45-7.7 59.7-8L59.7-8Q60.3-8.75 60.8-9.47 61.3-10.2 61.82-10.98 62.35-11.75 62.92-12.63 63.5-13.5 64.2-14.5L64.2-14.5Q64.95-15.55 65.62-16.57 66.3-17.6 66.82-18.5 67.34-19.4 67.72-20.15 68.09-20.9 68.25-21.35ZM67.15-17.4L67.15-17.4Q65.34-13.9 63.45-10.83 61.55-7.75 59.1-5.2L59.1-5.2Q57.55-3.55 57.25-5.7L57.25-5.7Q57.15-7.4 57.5-9.25 57.85-11.1 58.55-12.75L58.55-12.75Q59.2-14.35 60.15-15.85 61.1-17.35 62.35-18.6 63.6-19.85 65.12-20.7 66.65-21.55 68.4-21.85L68.4-21.85Q69-23.95 69.55-25.98 70.09-28 70.45-29.95 70.8-31.9 70.82-33.73 70.84-35.55 70.5-37.2L70.5-37.2Q70.4-37.5 70.45-37.5L70.45-37.5Q70.55-37.55 70.62-37.4 70.7-37.25 70.7-37.2L70.7-37.2Q71.9-34.8 71.87-32.05 71.84-29.3 71.2-26.35 70.55-23.4 69.57-20.35 68.59-17.3 67.9-14.25L67.9-14.25Q67.45-12.3 67.37-10.08 67.3-7.85 67.8-5.7L67.8-5.7Q68.3-3.45 69.65-1.88 71-0.3 72.75-0.15L72.75-0.15Q73.15-0.1 73.15 0L73.15 0Q73.15 0.1 73.02 0.13 72.9 0.15 72.8 0.15L72.8 0.15Q71.75 0.15 70.72-0.25 69.7-0.65 68.8-1.4 67.9-2.15 67.22-3.18 66.55-4.2 66.25-5.5L66.25-5.5Q66.15-5.9 66.15-6.15L66.15-6.15Q64.75-3.5 62.77-1.88 60.8-0.25 57.8 0L57.8 0Q55.55 0.15 54.37-1.05 53.2-2.25 52.75-3.95 52.3-5.65 52.45-7.53 52.6-9.4 53-10.6L53-10.6Q54.15-14.05 55.9-16.68 57.65-19.3 59.4-20.35L59.4-20.35Q59.5-20.45 59.7-20.53 59.9-20.6 59.95-20.55L59.95-20.55Q60.05-20.5 59.9-20.35 59.75-20.2 59.7-20.15L59.7-20.15Q57-17.45 55.52-13.98 54.05-10.5 53.95-6.9L53.95-6.9Q53.9-6 54-4.95 54.1-3.9 54.47-2.98 54.85-2.05 55.55-1.43 56.25-0.8 57.45-0.8L57.45-0.8Q59.15-0.75 60.67-1.83 62.2-2.9 63.32-4.48 64.45-6.05 65.15-7.85 65.84-9.65 65.95-11.15L65.95-11.15Q65.59-10.75 65.34-10.33 65.09-9.9 64.7-9.4L64.7-9.4Q64.65-9.3 64.4-9.08 64.15-8.85 64-8.9L64-8.9Q63.9-8.95 64.09-9.47 64.3-10 64.59-10.63 64.9-11.25 65.2-11.83 65.5-12.4 65.59-12.6L65.59-12.6Q66.15-13.75 66.45-14.9 66.75-16.05 67.15-17.4ZM74.09-1.15L74.09-1.15Q74.09-1.05 73.84-0.95L73.84-0.95Q73.7-0.9 73.59-0.9L73.59-0.9Q72.65-0.8 71.82-1 71-1.2 70.15-2.05L70.15-2.05Q69.7-2.5 69.37-3.4 69.05-4.3 68.87-5.15 68.7-6 68.72-6.65 68.75-7.3 68.95-7.25L68.95-7.25Q69-7.3 69.12-7.05 69.25-6.8 69.34-6.48 69.45-6.15 69.55-5.83 69.65-5.5 69.7-5.35L69.7-5.35Q69.95-4.55 70.3-3.9 70.65-3.25 71.15-2.75L71.15-2.75Q72.34-1.35 73.75-1.3L73.75-1.3Q73.84-1.3 73.97-1.28 74.09-1.25 74.09-1.15ZM66.84-22.25L66.84-22.25Q66.84-22.2 66.77-22.15 66.7-22.1 66.4-22L66.4-22Q65.75-21.75 64.8-21.18 63.85-20.6 62.8-19.75 61.75-18.9 60.72-17.78 59.7-16.65 58.95-15.35L58.95-15.35Q58.2-14 57.67-12.73 57.15-11.45 56.85-10.38 56.55-9.3 56.42-8.55 56.3-7.8 56.25-7.55L56.25-7.55Q56.2-6.7 56.2-5.88 56.2-5.05 56.42-4.38 56.65-3.7 57.15-3.35 57.65-3 58.65-3.15L58.65-3.15Q58.75-3.15 59.27-3.38 59.8-3.6 59.9-3.55L59.9-3.55Q59.95-3.5 59.85-3.35 59.75-3.2 59.55-3.03 59.35-2.85 59.17-2.73 59-2.6 58.95-2.55L58.95-2.55Q58.5-2.3 57.95-2.18 57.4-2.05 56.87-2.15 56.35-2.25 55.9-2.58 55.45-2.9 55.25-3.5L55.25-3.5Q54.7-5.35 54.75-7.1L54.75-7.1Q54.85-8.85 55.2-10.58 55.55-12.3 56.4-14.05L56.4-14.05Q56.9-15.4 57.97-16.85 59.05-18.3 60.45-19.5 61.85-20.7 63.37-21.5 64.9-22.3 66.25-22.35L66.25-22.35Q66.45-22.35 66.65-22.35 66.84-22.35 66.84-22.25ZM92.19-13.85L92.19-13.85Q92.34-15.2 92.24-16.7 92.14-18.2 91.62-19.48 91.09-20.75 90.02-21.6 88.94-22.45 87.19-22.45L87.19-22.45Q84.84-22.45 83.09-21.18 81.34-19.9 80.09-18.03 78.84-16.15 78.14-14.03 77.44-11.9 77.24-10.15L77.24-10.15Q76.94-7.75 77.17-6 77.39-4.25 77.99-3.13 78.59-2 79.52-1.45 80.44-0.9 81.54-0.9L81.54-0.9Q83.09-0.85 84.82-1.78 86.54-2.7 88.04-4.38 89.54-6.05 90.67-8.47 91.79-10.9 92.19-13.85ZM76.09-10.4L76.09-10.4Q76.29-12.4 77.09-14.8 77.89-17.2 79.32-19.25 80.74-21.3 82.74-22.68 84.74-24.05 87.39-24.05L87.39-24.05Q89.39-24.05 90.69-23.1 91.99-22.15 92.69-20.68 93.39-19.2 93.59-17.48 93.79-15.75 93.59-14.2L93.59-14.2Q93.14-10.6 91.84-7.95 90.54-5.3 88.79-3.53 87.04-1.75 85.09-0.88 83.14 0 81.34 0L81.34 0Q79.99 0 78.92-0.6 77.84-1.2 77.12-2.48 76.39-3.75 76.12-5.73 75.84-7.7 76.09-10.4ZM81.69-3.35L81.69-3.35Q81.44-3.35 81.19-3.53 80.94-3.7 80.79-3.95 80.64-4.2 80.59-4.45 80.54-4.7 80.79-4.8L80.79-4.8Q80.94-4.85 81.19-4.45 81.44-4.05 81.74-4.05L81.74-4.05Q82.24-4.05 82.92-4.7 83.59-5.35 84.22-6.23 84.84-7.1 85.32-7.95 85.79-8.8 85.99-9.2L85.99-9.2Q86.19-9.6 86.39-10.23 86.59-10.85 86.77-11.5 86.94-12.15 87.07-12.78 87.19-13.4 87.24-13.85L87.24-13.85Q87.49-16.1 87.14-17.32 86.79-18.55 85.99-18.55L85.99-18.55Q85.39-18.55 84.74-18.18 84.09-17.8 83.52-17.2 82.94-16.6 82.49-15.88 82.04-15.15 81.84-14.4L81.84-14.4Q81.59-13.55 81.49-13.55L81.49-13.55Q81.34-13.55 81.34-14.4L81.34-14.4Q81.49-15.35 81.99-16.28 82.49-17.2 83.24-17.93 83.99-18.65 84.89-19.13 85.79-19.6 86.74-19.6L86.74-19.6Q87.69-19.6 88.17-18.93 88.64-18.25 88.84-17.28 89.04-16.3 89.02-15.28 88.99-14.25 88.89-13.65L88.89-13.65Q88.69-12.3 88.27-11.03 87.84-9.75 87.24-8.45L87.24-8.45Q86.94-7.85 86.34-6.98 85.74-6.1 84.97-5.3 84.19-4.5 83.32-3.93 82.44-3.35 81.69-3.35ZM83.29-2.4L83.29-2.4Q83.34-2.1 82.82-1.9 82.29-1.7 81.74-1.7L81.74-1.7Q80.19-1.75 79.37-2.7 78.54-3.65 78.22-4.95 77.89-6.25 77.92-7.65 77.94-9.05 78.04-10L78.04-10Q78.24-11.65 78.84-13.7 79.44-15.75 80.54-17.55 81.64-19.35 83.24-20.58 84.84-21.8 87.04-21.8L87.04-21.8Q88.49-21.8 89.37-21.05 90.24-20.3 90.67-19.2 91.09-18.1 91.17-16.82 91.24-15.55 91.09-14.5L91.09-14.5Q90.99-13.35 90.74-12.4 90.49-11.45 90.04-10.3L90.04-10.3Q89.89-9.95 89.64-9.5 89.39-9.05 89.09-9.1L89.09-9.1Q88.94-9.15 89.02-9.5 89.09-9.85 89.22-10.38 89.34-10.9 89.49-11.48 89.64-12.05 89.69-12.55L89.69-12.55Q89.79-13.4 89.82-14.68 89.84-15.95 89.62-17.15 89.39-18.35 88.79-19.2 88.19-20.05 86.99-20.05L86.99-20.05Q85.24-20.05 83.77-18.93 82.29-17.8 81.19-16.18 80.09-14.55 79.42-12.78 78.74-11 78.59-9.65L78.59-9.65Q78.49-8.85 78.54-7.65 78.59-6.45 78.92-5.28 79.24-4.1 79.99-3.25 80.74-2.4 82.04-2.35L82.04-2.35Q82.44-2.3 82.82-2.43 83.19-2.55 83.29-2.4ZM112.19-11.6L112.19-11.6Q110.04-11.8 107.77-12.18 105.49-12.55 103.49-13.1L103.49-13.1Q103.39-13.15 103.04-13.25 102.69-13.35 102.69-13.45L102.69-13.45Q102.69-13.6 103.04-13.65 103.39-13.7 103.49-13.7L103.49-13.7Q104.49-13.8 106.04-13.83 107.59-13.85 108.59-13.7L108.59-13.7Q109.54-13.55 110.82-13.45 112.09-13.35 113.39-13.4 114.69-13.45 115.92-13.65 117.14-13.85 118.04-14.25L118.04-14.25Q118.44-14.4 118.94-14.85 119.44-15.3 119.69-15.75L119.69-15.75Q118.09-14.7 116.14-14.45 114.19-14.2 112.07-14.35 109.94-14.5 107.77-14.8 105.59-15.1 103.49-15.2L103.49-15.2Q102.14-15.25 100.72-15.1 99.29-14.95 97.97-14.5 96.64-14.05 95.54-13.3 94.44-12.55 93.74-11.45L93.74-11.45Q93.64-11.2 93.67-11.38 93.69-11.55 93.69-11.65L93.69-11.65Q94.09-13.65 95.57-14.68 97.04-15.7 98.79-16.25L98.79-16.25Q99.44-18.95 100.29-21.6 101.14-24.25 101.87-26.75 102.59-29.25 103.07-31.6 103.54-33.95 103.49-36.15L103.49-36.15Q103.54-36.25 103.52-36.35 103.49-36.45 103.59-36.45L103.59-36.45Q103.69-36.5 103.72-36.33 103.74-36.15 103.74-36.1L103.74-36.1Q104.39-33.9 104.24-31.53 104.09-29.15 103.52-26.7 102.94-24.25 102.12-21.73 101.29-19.2 100.59-16.65L100.59-16.65 101.89-16.8Q102.14-17.95 102.42-19.15 102.69-20.35 102.99-21.25L102.99-21.25Q103.09-21.55 103.32-22.48 103.54-23.4 103.79-24.7 104.04-26 104.32-27.5 104.59-29 104.77-30.4 104.94-31.8 104.97-32.95 104.99-34.1 104.84-34.75L104.84-34.75Q104.84-35.2 104.89-35.2L104.89-35.2Q104.99-35.2 105.09-35.08 105.19-34.95 105.24-34.85L105.24-34.85Q105.79-34 106.07-32.8 106.34-31.6 106.42-30.28 106.49-28.95 106.37-27.65 106.24-26.35 105.99-25.4L105.99-25.4Q105.39-23.3 104.69-21.1 103.99-18.9 103.19-16.8L103.19-16.8 104.04-16.8 104.29-16.8Q104.49-17.65 104.79-18.5 105.09-19.35 105.34-20.2L105.34-20.2Q105.99-22.55 106.64-25.03 107.29-27.5 107.39-30.35L107.39-30.35Q107.39-30.6 107.44-30.6L107.44-30.6Q107.54-30.6 107.57-30.5 107.59-30.4 107.64-30.3L107.64-30.3Q108.09-29.2 108.07-27.5 108.04-25.8 107.74-23.93 107.44-22.05 106.97-20.13 106.49-18.2 106.09-16.65L106.09-16.65Q107.94-16.5 109.67-16.25 111.39-16 113.14-15.8L113.14-15.8Q113.79-18.5 114.62-21.13 115.44-23.75 116.17-26.23 116.89-28.7 117.37-31.05 117.84-33.4 117.79-35.55L117.79-35.55Q117.79-35.8 117.89-35.8L117.89-35.8Q117.99-35.8 118.04-35.7 118.09-35.6 118.09-35.55L118.09-35.55Q118.74-33.3 118.57-30.88 118.39-28.45 117.79-25.95 117.19-23.45 116.34-20.88 115.49-18.3 114.79-15.7L114.79-15.7Q115.09-15.6 115.42-15.65 115.74-15.7 116.09-15.7L116.09-15.7Q116.29-16.95 116.64-18.28 116.99-19.6 117.29-20.55L117.29-20.55Q117.39-20.85 117.62-21.78 117.84-22.7 118.09-24 118.34-25.3 118.62-26.8 118.89-28.3 119.07-29.73 119.24-31.15 119.27-32.3 119.29-33.45 119.14-34.1L119.14-34.1Q119.04-34.45 119.19-34.5L119.19-34.5Q119.29-34.55 119.39-34.43 119.49-34.3 119.54-34.2L119.54-34.2Q120.09-33.35 120.39-32.15 120.69-30.95 120.77-29.65 120.84-28.35 120.72-27.05 120.59-25.75 120.34-24.8L120.34-24.8Q119.74-22.55 118.94-20.25 118.14-17.95 117.29-15.7L117.29-15.7 118.54-15.9Q118.79-16.75 119.09-17.68 119.39-18.6 119.64-19.5L119.64-19.5Q120.34-21.9 120.97-24.38 121.59-26.85 121.69-29.65L121.69-29.65Q121.69-29.9 121.69-29.93 121.69-29.95 121.74-29.95L121.74-29.95Q121.84-29.95 121.94-29.65L121.94-29.65Q122.54-28.3 122.39-26.15 122.24-24 121.79-21.68 121.34-19.35 120.74-17.18 120.14-15 119.84-13.7L119.84-13.7Q119.29-11.3 118.44-8.75 117.59-6.2 116.94-4.3L116.94-4.3Q116.79-3.7 116.54-3.7L116.54-3.7Q116.44-3.75 116.47-4 116.49-4.25 116.49-4.5L116.49-4.5Q116.59-6.65 116.92-8.78 117.24-10.9 117.79-13.15L117.79-13.15Q116.54-12.3 114.94-11.9 113.34-11.5 112.19-11.6ZM102.19-5.15L102.19-5.15Q102.29-7.55 102.64-9.85L102.64-9.85Q101.79-9.95 100.97-10.08 100.14-10.2 99.34-10.35L99.34-10.35Q99.14-7.65 99.49-5.03 99.84-2.4 100.99-0.2L100.99-0.2Q101.09 0 101.09 0L101.09 0Q101.09 0.25 100.79 0L100.79 0Q98.79-2.2 98.22-4.93 97.64-7.65 97.84-10.55L97.84-10.55 96.74-10.75Q96.49-10.75 96.32-10.85 96.14-10.95 96.14-11.05L96.14-11.05Q96.14-11.15 96.34-11.2 96.54-11.25 96.69-11.3L96.69-11.3Q99.54-11.9 102.39-11.75 105.24-11.6 108.19-11.25L108.19-11.25Q110.04-11.05 111.94-10.9 113.84-10.75 115.94-11.25L115.94-11.25Q116.14-11.3 116.19-11.2L116.19-11.2Q116.19-11.15 115.99-10.95L115.99-10.95Q115.14-10.15 113.69-9.85L113.69-9.85Q113.44-7.15 113.74-4.53 114.04-1.9 115.24 0L115.24 0Q115.39 0.15 115.24 0.15L115.24 0.15Q115.19 0.15 115.14 0.1 115.09 0.05 114.99 0L114.99 0Q114.04-0.8 113.47-1.88 112.89-2.95 112.59-4.2 112.29-5.45 112.22-6.83 112.14-8.2 112.19-9.6L112.19-9.6Q111.14-9.5 110.04-9.5 108.94-9.5 107.89-9.55 106.84-9.6 105.89-9.68 104.94-9.75 104.24-9.8L104.24-9.8Q103.84-8.45 103.39-7.23 102.94-6 102.64-5L102.64-5Q102.54-4.75 102.44-4.53 102.34-4.3 102.24-4.4L102.24-4.4Q102.14-4.4 102.17-4.65 102.19-4.9 102.19-5.15ZM115.84-2.9L115.84-2.9Q116.09-1.95 116.29-1.2 116.49-0.45 116.84 0L116.84 0Q116.89 0.05 116.94 0.13 116.99 0.2 116.89 0.25L116.89 0.25Q116.69 0.25 116.34 0L116.34 0Q115.79-0.4 115.37-0.9 114.94-1.4 114.69-2.9L114.69-2.9Q114.59-3.5 114.59-4.35 114.59-5.2 114.64-5.98 114.69-6.75 114.82-7.3 114.94-7.85 115.09-7.8L115.09-7.8Q115.19-7.8 115.24-7.55 115.29-7.3 115.34-7 115.39-6.7 115.42-6.4 115.44-6.1 115.44-5.95L115.44-5.95Q115.54-5.1 115.62-4.35 115.69-3.6 115.84-2.9ZM101.54-3.55L101.54-3.55Q101.84-1.75 102.49-0.2L102.49-0.2Q102.59 0.15 102.54 0.15L102.54 0.15Q102.29 0.15 101.99-0.15L101.99-0.15Q101.34-0.9 101.02-1.5 100.69-2.1 100.44-3.55L100.44-3.55Q100.34-4.1 100.32-4.95 100.29-5.8 100.34-6.6 100.39-7.4 100.52-7.95 100.64-8.5 100.79-8.5L100.79-8.5Q100.84-8.5 100.92-8.25 100.99-8 101.04-7.68 101.09-7.35 101.14-7.03 101.19-6.7 101.19-6.6L101.19-6.6Q101.29-5.75 101.37-5 101.44-4.25 101.54-3.55ZM95.44-11.6L95.44-11.6Q94.79-11.25 94.54-11 94.29-10.75 93.94-10.35L93.94-10.35Q93.74-10.1 93.74-10.2 93.74-10.3 93.74-10.45L93.74-10.45Q93.94-11.2 94.24-11.65 94.54-12.1 95.24-12.65L95.24-12.65Q95.59-12.95 96.22-13.15 96.84-13.35 97.44-13.43 98.04-13.5 98.49-13.48 98.94-13.45 98.94-13.3L98.94-13.3Q98.94-13.15 98.37-12.9 97.79-12.65 97.64-12.55L97.64-12.55Q97.04-12.3 96.49-12.08 95.94-11.85 95.44-11.6ZM137.59-20.4L137.59-20.4Q137.99-19.9 138.21-19.15 138.44-18.4 138.39-17.53 138.34-16.65 137.99-15.7 137.64-14.75 136.89-13.85L136.89-13.85Q135.44-12.15 133.71-11.23 131.99-10.3 130.59-10.3L130.59-10.3Q129.74-10.3 130.59-10.6L130.59-10.6Q131.04-10.75 131.66-11.08 132.29-11.4 132.99-11.88 133.69-12.35 134.41-13 135.14-13.65 135.74-14.5L135.74-14.5Q136.74-15.9 136.91-17.23 137.09-18.55 136.39-19.25L136.39-19.25Q135.79-19.85 134.99-19.93 134.19-20 132.59-19.05L132.59-19.05Q131.14-18.2 129.99-16.95 128.84-15.7 127.84-14.3L127.84-14.3Q127.29-13.6 127.11-13.6 126.94-13.6 127.24-14.5L127.24-14.5Q127.84-16.25 128.91-17.75 129.99-19.25 131.49-20.3L131.49-20.3Q132.59-21.05 133.51-21.35 134.44-21.65 135.21-21.6 135.99-21.55 136.59-21.23 137.19-20.9 137.59-20.4ZM140.29-16.9L140.29-16.9Q140.09-15.7 139.66-14.88 139.24-14.05 138.71-13.48 138.19-12.9 137.66-12.55 137.14-12.2 136.74-11.9L136.74-11.9Q136.54-11.75 136.44-11.85 136.34-11.95 136.59-12.2L136.59-12.2Q137.49-12.95 138.41-14.23 139.34-15.5 139.39-17.05L139.39-17.05Q139.39-19.7 138.09-21.1L138.09-21.1Q136.79-22.5 134.84-22.33 132.89-22.15 130.79-20.8L130.79-20.8Q129.44-19.95 128.41-18.82 127.39-17.7 126.64-16.43 125.89-15.15 125.41-13.8 124.94-12.45 124.74-11.1L124.74-11.1Q124.54-9.8 124.36-8.3 124.19-6.8 124.36-5.35 124.54-3.9 125.29-2.58 126.04-1.25 127.64-0.3L127.64-0.3Q127.89-0.15 128.16-0.1 128.44-0.05 128.44 0L128.44 0Q128.44 0.1 128.19 0.13 127.94 0.15 127.64 0.05L127.64 0.05Q126.39-0.2 125.51-0.98 124.64-1.75 124.09-2.75 123.54-3.75 123.24-4.85 122.94-5.95 122.89-6.85L122.89-6.85Q122.59-10.8 123.99-14.65L123.99-14.65Q124.29-15.45 124.76-16.45 125.24-17.45 125.94-18.48 126.64-19.5 127.59-20.48 128.54-21.45 129.74-22.2L129.74-22.2Q130.89-22.9 132.14-23.25 133.39-23.6 134.64-23.58 135.89-23.55 136.99-23.13 138.09-22.7 138.94-21.85L138.94-21.85Q139.69-21.05 140.11-19.8 140.54-18.55 140.29-16.9ZM135.74-18.7L135.74-18.7Q136.34-18 135.89-16.53 135.44-15.05 133.79-13.55L133.79-13.55Q132.89-12.7 132.04-12.18 131.19-11.65 129.89-11.25L129.89-11.25Q129.34-9.35 129.19-7.5 129.04-5.65 129.29-4.5L129.29-4.5Q129.34-4.05 129.61-3.63 129.89-3.2 130.41-2.98 130.94-2.75 131.79-2.8 132.64-2.85 133.89-3.35L133.89-3.35Q134.24-3.5 134.31-3.43 134.39-3.35 133.99-3.1L133.99-3.1Q133.09-2.4 132.09-2.13 131.09-1.85 130.21-1.95 129.34-2.05 128.71-2.55 128.09-3.05 127.89-3.9L127.89-3.9Q127.49-5.65 127.54-7.55 127.59-9.45 128.11-11.3 128.64-13.15 129.61-14.78 130.59-16.4 132.04-17.55L132.04-17.55Q134.74-19.7 135.74-18.7ZM135.24-2.75L135.24-2.75Q134.89-2.25 134.36-1.78 133.84-1.3 133.16-0.93 132.49-0.55 131.76-0.3 131.04-0.05 130.29-0.05L130.29-0.05Q128.99-0.05 127.86-0.63 126.74-1.2 126.14-2.95L126.14-2.95Q126.04-3.15 126.04-3.33 126.04-3.5 126.14-3.5L126.14-3.5Q126.34-3.6 126.54-3.38 126.74-3.15 126.94-2.9L126.94-2.9Q127.49-2.25 128.36-1.75 129.24-1.25 130.04-1.25L130.04-1.25Q131.54-1.25 132.64-1.7 133.74-2.15 134.74-2.9L134.74-2.9Q134.99-3.05 135.31-3.2 135.64-3.35 135.24-2.75ZM134.54-17.35L134.54-17.35Q134.34-17.75 133.09-16.7L133.09-16.7Q131.94-15.8 131.26-14.63 130.59-13.45 130.09-12.05L130.09-12.05Q131.04-12.5 131.84-13.08 132.64-13.65 133.34-14.2L133.34-14.2Q134.09-14.85 134.44-15.9 134.79-16.95 134.54-17.35ZM146.74-16.65L146.74-16.65Q146.34-14.95 145.61-13.08 144.89-11.2 143.99-9.6L143.99-9.6Q143.99-9.5 143.86-9.28 143.74-9.05 143.54-9.05L143.54-9.05Q143.44-9.05 143.41-9.35 143.39-9.65 143.44-9.75L143.44-9.75Q143.44-10.55 143.64-11.88 143.84-13.2 144.14-14.05L144.14-14.05Q144.24-14.35 144.46-15.5 144.69-16.65 144.86-18.07 145.04-19.5 145.06-20.83 145.09-22.15 144.74-22.8L144.74-22.8 144.74-23Q144.94-23.15 145.19-22.9L145.19-22.9Q145.84-22.35 146.21-21.55 146.59-20.75 146.76-19.88 146.94-19 146.91-18.15 146.89-17.3 146.74-16.65ZM148.69-16.85L148.69-16.85Q149.24-17.55 149.74-17.85 150.24-18.15 150.74-18.35L150.74-18.35Q150.79-18.35 150.99-18.4 151.19-18.45 151.29-18.3L151.29-18.3Q151.39-18.15 151.24-17.95 151.09-17.75 150.99-17.65L150.99-17.65Q150.64-17.3 150.21-16.88 149.79-16.45 149.44-16.05L149.44-16.05Q148.94-15.5 148.64-14.78 148.34-14.05 148.19-13.3L148.19-13.3Q149.04-14.2 149.81-15 150.59-15.8 151.49-16.5L151.49-16.5Q152.64-17.35 153.49-18.7 154.34-20.05 154.69-22.65L154.69-22.65Q154.79-22.9 154.94-22.95 155.09-23 155.09-22.6L155.09-22.6Q155.24-19.7 154.49-18 153.74-16.3 152.24-15.15L152.24-15.15Q151.44-14.55 150.64-13.85 149.84-13.15 149.11-12.3 148.39-11.45 147.79-10.3 147.19-9.15 146.74-7.65L146.74-7.65Q146.39-6.5 146.04-5.48 145.69-4.45 145.29-3.5L145.29-3.5Q145.19-3.15 144.99-3.15L144.99-3.15Q144.84-3.2 144.84-3.65L144.84-3.65Q144.59-6.05 145.16-8.43 145.74-10.8 146.54-13.35L146.54-13.35Q146.89-14.6 147.36-15.85 147.84-17.1 147.79-18.7L147.79-18.7Q147.79-19.25 148.24-19.85 148.69-20.45 149.34-20.98 149.99-21.5 150.69-21.88 151.39-22.25 151.89-22.4L151.89-22.4Q152.34-22.55 152.34-22.35 152.34-22.15 152.04-21.85L152.04-21.85Q150.99-20.9 149.91-19.6 148.84-18.3 148.69-16.85ZM144.34-0.05L144.34-0.05Q144.29 0 144.26-0.03 144.24-0.05 143.99-0.2L143.99-0.2Q142.49-1.3 141.64-2.6 140.79-3.9 140.41-5.28 140.04-6.65 140.09-8.03 140.14-9.4 140.44-10.7L140.44-10.7Q140.84-12.45 141.41-14.18 141.99-15.9 142.49-17.53 142.99-19.15 143.24-20.73 143.49-22.3 143.24-23.75L143.24-23.75Q143.24-23.85 143.39-23.9L143.39-23.9Q143.44-23.9 143.49-23.83 143.54-23.75 143.59-23.7L143.59-23.7Q144.54-22.1 144.54-20.43 144.54-18.75 144.09-17.03 143.64-15.3 142.96-13.53 142.29-11.75 141.89-9.95L141.89-9.95Q141.39-7.65 141.81-5.05 142.24-2.45 144.14-0.4L144.14-0.4Q144.24-0.25 144.34-0.2 144.44-0.15 144.34-0.05ZM145.84 0L145.84 0Q145.74 0 145.64-0.05L145.64-0.05 145.44-0.15Q144.74-0.6 144.19-1.13 143.64-1.65 143.24-2.65L143.24-2.65Q143.09-3 142.99-3.58 142.89-4.15 142.86-4.65 142.84-5.15 142.91-5.5 142.99-5.85 143.19-5.8L143.19-5.8Q143.34-5.8 143.51-5.4 143.69-5 143.79-4.6L143.79-4.6Q143.89-4.05 144.01-3.55 144.14-3.05 144.34-2.65L144.34-2.65Q144.89-1.4 145.79-0.25L145.79-0.25Q145.89 0 145.84 0ZM153.99-22.45L153.99-22.45Q153.99-21.4 153.39-20.6 152.79-19.8 151.94-19.25L151.94-19.25Q151.79-19.15 151.74-19.28 151.69-19.4 151.69-19.45L151.69-19.45Q151.69-19.75 151.94-20.18 152.19-20.6 152.51-21.08 152.84-21.55 153.14-22.05 153.44-22.55 153.54-22.95L153.54-22.95Q153.69-23.2 153.84-22.95 153.99-22.7 153.99-22.45ZM170.78-13.85L170.78-13.85Q170.93-15.2 170.83-16.7 170.73-18.2 170.21-19.48 169.68-20.75 168.61-21.6 167.53-22.45 165.78-22.45L165.78-22.45Q163.43-22.45 161.68-21.18 159.93-19.9 158.68-18.03 157.43-16.15 156.73-14.03 156.03-11.9 155.83-10.15L155.83-10.15Q155.53-7.75 155.76-6 155.98-4.25 156.58-3.13 157.18-2 158.11-1.45 159.03-0.9 160.13-0.9L160.13-0.9Q161.68-0.85 163.41-1.78 165.13-2.7 166.63-4.38 168.13-6.05 169.26-8.47 170.38-10.9 170.78-13.85ZM154.68-10.4L154.68-10.4Q154.88-12.4 155.68-14.8 156.48-17.2 157.91-19.25 159.33-21.3 161.33-22.68 163.33-24.05 165.98-24.05L165.98-24.05Q167.98-24.05 169.28-23.1 170.58-22.15 171.28-20.68 171.98-19.2 172.18-17.48 172.38-15.75 172.18-14.2L172.18-14.2Q171.73-10.6 170.43-7.95 169.13-5.3 167.38-3.53 165.63-1.75 163.68-0.88 161.73 0 159.93 0L159.93 0Q158.58 0 157.51-0.6 156.43-1.2 155.71-2.48 154.98-3.75 154.71-5.73 154.43-7.7 154.68-10.4ZM160.28-3.35L160.28-3.35Q160.03-3.35 159.78-3.53 159.53-3.7 159.38-3.95 159.23-4.2 159.18-4.45 159.13-4.7 159.38-4.8L159.38-4.8Q159.53-4.85 159.78-4.45 160.03-4.05 160.33-4.05L160.33-4.05Q160.83-4.05 161.51-4.7 162.18-5.35 162.81-6.23 163.43-7.1 163.91-7.95 164.38-8.8 164.58-9.2L164.58-9.2Q164.78-9.6 164.98-10.23 165.18-10.85 165.36-11.5 165.53-12.15 165.66-12.78 165.78-13.4 165.83-13.85L165.83-13.85Q166.08-16.1 165.73-17.32 165.38-18.55 164.58-18.55L164.58-18.55Q163.98-18.55 163.33-18.18 162.68-17.8 162.11-17.2 161.53-16.6 161.08-15.88 160.63-15.15 160.43-14.4L160.43-14.4Q160.18-13.55 160.08-13.55L160.08-13.55Q159.93-13.55 159.93-14.4L159.93-14.4Q160.08-15.35 160.58-16.28 161.08-17.2 161.83-17.93 162.58-18.65 163.48-19.13 164.38-19.6 165.33-19.6L165.33-19.6Q166.28-19.6 166.76-18.93 167.23-18.25 167.43-17.28 167.63-16.3 167.61-15.28 167.58-14.25 167.48-13.65L167.48-13.65Q167.28-12.3 166.86-11.03 166.43-9.75 165.83-8.45L165.83-8.45Q165.53-7.85 164.93-6.98 164.33-6.1 163.56-5.3 162.78-4.5 161.91-3.93 161.03-3.35 160.28-3.35ZM161.88-2.4L161.88-2.4Q161.93-2.1 161.41-1.9 160.88-1.7 160.33-1.7L160.33-1.7Q158.78-1.75 157.96-2.7 157.13-3.65 156.81-4.95 156.48-6.25 156.51-7.65 156.53-9.05 156.63-10L156.63-10Q156.83-11.65 157.43-13.7 158.03-15.75 159.13-17.55 160.23-19.35 161.83-20.58 163.43-21.8 165.63-21.8L165.63-21.8Q167.08-21.8 167.96-21.05 168.83-20.3 169.26-19.2 169.68-18.1 169.76-16.82 169.83-15.55 169.68-14.5L169.68-14.5Q169.58-13.35 169.33-12.4 169.08-11.45 168.63-10.3L168.63-10.3Q168.48-9.95 168.23-9.5 167.98-9.05 167.68-9.1L167.68-9.1Q167.53-9.15 167.61-9.5 167.68-9.85 167.81-10.38 167.93-10.9 168.08-11.48 168.23-12.05 168.28-12.55L168.28-12.55Q168.38-13.4 168.41-14.68 168.43-15.95 168.21-17.15 167.98-18.35 167.38-19.2 166.78-20.05 165.58-20.05L165.58-20.05Q163.83-20.05 162.36-18.93 160.88-17.8 159.78-16.18 158.68-14.55 158.01-12.78 157.33-11 157.18-9.65L157.18-9.65Q157.08-8.85 157.13-7.65 157.18-6.45 157.51-5.28 157.83-4.1 158.58-3.25 159.33-2.4 160.63-2.35L160.63-2.35Q161.03-2.3 161.41-2.43 161.78-2.55 161.88-2.4Z" opacity="1" transform="matrix(1,0,0,1,0,0)" fill="#ffffff" class="wordmark-text-0" data-fill-palette-color="primary" id="text-0"></path></svg></g></svg></g></svg></g></svg></g><g transform="matrix(1,0,0,1,0,4.771779892765721)"><svg viewBox="0 0 84.29675275656743 84.29675275656743" height="84.29675275656743" width="84.29675275656743"><g><svg></svg></g><g id="icon-0"><svg viewBox="0 0 84.29675275656743 84.29675275656743" height="84.29675275656743" width="84.29675275656743"><g><path transform="scale(0.84297,0.84297)" d="M30 100c-16.569 0-30-13.431-30-30v-40c0-16.569 13.431-30 30-30h40c16.569 0 30 13.431 30 30v40c0 16.569-13.431 30-30 30z" fill="#ffffff" fill-rule="nonzero" stroke="none" stroke-width="1" stroke-linecap="butt" stroke-linejoin="miter" stroke-miterlimit="10" stroke-dasharray="" stroke-dashoffset="0" font-family="none" font-weight="none" font-size="none" text-anchor="none" style="mix-blend-mode: normal" data-fill-palette-color="accent"></path></g><g transform="matrix(1,0,0,1,27.476025805740086,16.85935055131349)"><svg viewBox="0 0 29.344701145087257 50.57805165394045" height="50.57805165394045" width="29.344701145087257"><g><svg xmlns="http://www.w3.org/2000/svg" xmlns:xlink="http://www.w3.org/1999/xlink" version="1.1" x="0" y="0" viewBox="21.679106830508616 1 56.85827385947762 98" enable-background="new 0 0 100 100" xml:space="preserve" height="50.57805165394045" width="29.344701145087257" class="icon-dxe-0" data-fill-palette-color="quaternary" id="dxe-0"><g fill="#a8deea" data-fill-palette-color="quaternary"><path fill-rule="evenodd" clip-rule="evenodd" d="M30.545 28.822C29.38 36.039 30.875 43.672 37.045 47.863 30.758 19.81 45.756 8.664 59.646 1 43.466 24.046 76.542 24.644 78.423 51.13 80.028 73.71 64.507 91.317 46.639 99 46.845 76.175 24.089 73.067 21.801 54.397 20.905 47.094 25.062 33.766 30.545 28.822" fill="#000000" data-fill-palette-color="quaternary"></path></g></svg></g></svg></g></svg></g></svg></g></svg></g><defs></defs></svg><rect width="395.52" height="73.94008755184065" fill="none" stroke="none" visibility="hidden"></rect></g></svg></g></svg>